/* XPM */
static char *metal_grey1690631532[] = {
/* columns rows colors chars-per-pixel */
"128 128 38 1 ",
"  c gray24",
". c #3E3E3E",
"X c gray25",
"o c gray27",
"O c gray29",
"+ c #4E4E4E",
"@ c #515151",
"# c gray34",
"$ c #5A5A5A",
"% c gray36",
"& c #606060",
"* c gray40",
"= c #686868",
"- c #6D6D6D",
"; c gray44",
": c gray46",
"> c #7B7B7B",
", c gray49",
"< c gray51",
"1 c gray53",
"2 c #898989",
"3 c #8E8E8E",
"4 c #909090",
"5 c #979797",
"6 c #989898",
"7 c gray61",
"8 c gray64",
"9 c #A4A4A4",
"0 c #AAAAAA",
"q c gray68",
"w c gray70",
"e c #B4B4B4",
"r c #B9B9B9",
"t c #BCBCBC",
"y c #C0C0C0",
"u c gray77",
"i c #C8C8C8",
"p c gray79",
/* pixels */
"22222222222222222222222222222222222222222222222222222222222222222222222222222222222222222222222222222222222222222222222222222222",
"22222222222222222222222222222222222222222222222222222222222222222222222222222222222222222222222222222222222222222222222222222222",
"22222222222222222222222222222222222222222222222222222222222222222222222222222222222222222222222222222222222222222222222222222222",
"22222222222222222222222222222222222222222222222122222222222222222222222222222222222222222222222222222222222222222222222222222222",
"2222222222%@o......XoO222222222222222222222222<*%@X...XXXXXXXXXXX.X.X.X..XXXXXO@$:222222222222222222222222%@o......XoO2222222222",
"222222222**%@o.....oO+@22222222222222222222222<,:=&#O......................X+@$*--22222222222222222222222**%@o.....oO+@222222222",
"22222222*=**%@o..XoO@+@+222222222222222222222211<<>=&$OX.................o+#%=--;;<222222222222222222222*=**%@o..XoO@+@+22222222",
"2222222===***122222++@+@+222222222222222222224521<<<<;22222222222222222222*--;;;:,122222222222222222222===***122222++@+@+2222222",
"222222======22222222@+@+@@22222222222222222222q9641112222222222222222222222;;;><2422222222222222222222======22222222@+@+@@222222",
"22222======2222222222@+@@@@22222222222222222222te07522222222222222222222222:,235822222222222222222222======2222222222@+@@@@22222",
"2222:--===222222222222@@@@@$22222222222222222222yurq922222222222222222222222579922222222222222222222:--===222222222222@@@@@$2222",
"2222<:===22222222222222@@@#%222222222222222222222yuyy22222222222222222222228999222222222222222222222<:===22222222222222@@@#%2222",
"22223<:=3222222222222222@$&=2222222222222222222222yyuu22222222222222222222099922222222222222222222223<:=3222222222222222@$&=2222",
"222263<222222222222222222&=-2222222222>>22222222222uuuu222222222222222222990022222222222,:222222222264<222222222222222222&=-2222",
"2222564222222222222222222=-;22222222<==%@22222222222uuuy2222222222222222099922222222222&&&&>22222222564222222222222222222=-;2222",
"2222566222222222222222222-;;22222222,==&#O22222222222uuuy22222222222222900022222222222&&&&&&22222222566222222222222222222-;;2222",
"2222566222222222222222222-;;22222222<;-=$+o22222222222uuuu222222222222900922222222222&&&&*&*22222222566222222222222222222-;;2222",
"2222566222222222222222222;;;222222223,==&@oo22222222222yuuu2222222222090922222222222&&&%&&*-22222222566222222222222222222;;;2222",
"2222566222222222222222222-;;222222225<-=*$+oo22222222222uuuu22222222900022222222222*&&&&&&=;22222222566222222222222222222-;;2222",
"2222566222222222222222222;;;2222222251>==%+ooo22222222222uuui422223000922222222222&&&&&&&*=-22222222566222222222222222222;;;2222",
"2222666222222222222222222;;;2222222254<-=*#oXoo22222222222uuuuuyyte00922222222222*&&&&&&&=-;22222222666222222222222222222;;;2222",
"2222666222222222222222222;;;22222222551:2222oooo22222222222iuuyyyte0022222222222&&&&2222==;;22222222666222222222222222222;;;2222",
"2121665212121212212121212-;-12222121563222122Xooo12221212122uuyyyte021222121221&&&&212222=;;12122121665212121212212121212-;-1222",
"1212666121212121121212122;;-212112125652212122oooo22121212122iytyte21212121212*&*&2121212-;-21211212666121212121121212122;;-2121",
"2121666212121212121212122;;;2212121255621212122Xooo21212121212122221212121212&&&&12121212;-;12122121666212121212121212122;;;2212",
"1212666221212121212121212;;;21212121666221212222Xooo212121212121221212121212*&*&221212121;;;21211212666221212121212121212;;;2121",
"2121666212121212121212121;;;121212126662121212212oooo1121212121221212121222&*&&2212121212;;;12122121666212121212121212121;;;1212",
"1212666221212121212121212-;;2121212166622121211222oooo21212121211212121212&*&&21121212122;;;21211212666221212121212121212-;;2121",
"1212666212121212121212122;;;12121212666212122121212XooO212121212212121212&&*&212212121211;;;22121212666212121212121212122;;;1212",
"2121666221212121212121212;;;212121216662212112121221$$$$2121212112121212,,>>2221121212122;;;22212121666221212121212121212;;;2121",
"1222666212121212121212122;;;121212126662121221212121--=-121212122121212133321212212121211;;;22121222666212121212121212122;;;1212",
"2122666221212121212121222;;;212121226661212112121222;:;:212121211212121255552121121212122;;;21212122666221212121212121222;;;2121",
"1212667222121212121212121;;;121212126662221212121212::::221212122121212155552121121212122;;:21211212566212121212121212121;;;2222",
"2121666221212121212121212-:;212121216662222121212121,,,,222121211212121278781212212121212;;;12122121666221212121212121212;;;2221",
"1212766212121212121212122;;;12121212676212121212122244441212121221212121wwew3121121212122;;;21211212666212121212121212121;;:1212",
"2121666221212121212121212;;;212121216662212121212120999221212121121212122yyyy212212121212;;;12122121766221212121212121212-;;2121",
"1212666212121212121212122;;;2212121266622121121222999912121212122121212112yuyu21121212122;:;21212121676212121212121212122;:;1212",
"2121666221212121212121212;;;22212121666212122121299991212121212112121212212yuuu2212121212;:;12121212666221212121212121212;;;2121",
"1212666212121212121212122;;:221212127662212121120999221212121212212121212122yuyu121212122:;:21212121666212121212121212122-;;1212",
"2121676221212121212121212-;;2121212167621212122999022221212121211212121212122uuuy12121212;;;12121222766221212121212121212;;;2121",
"2121766112121212121212122;;;121212126662211212900922121221211@+OOoX22121121212yuuu2212122;;:21212121667222121212121212122;;:2212",
"1212666221212121212121212;;;21212121768212212909912121211212%#OOOOoo22122121212yyuu221211,;:12121212766221212121212121212;;;2121",
"2122766212121212121212122;;:1212121267902212099012121212212&%#OOOOXXX12112121212uyuu221261;:21212121766212121212121212121;;;1212",
"1222676221212121212121212;;;21212122779qqqq090912121212112&%%#+OOooooo12212121212uuuye0983>;12121212676221212121212121212;;:2121",
"2121766212121212121212122;;:12121212680qqqq90012121212222&%&%121121Xooo21212212121uuutw9951:12122121666212121212121212122;;:1212",
"1212677221212121212121212;;;2121212179qqqqq0922121212222&&&&21122121XoXo21211212122yuye9972:21211212676221212121212121212;;;2121",
"2121766212121212121212122;:;1212121280qqqq9012121212122&&&&2121212121oooo22121212121yutq984<12122121767212121212121212222;:;1212",
"1212676121212121212121222;:;2121212190qwqq012121212121&&&%222121212122oooo12121212222ute097221211212676221212121212121222;;;2121",
"2121676212121212121212122;;;221212129qqwq012121212221*&&&21212121212121oooo22121212121yr098412121212766112121212121212121;;:2121",
"1212678221212121212121211>;:222121216qqqq22121212122&&&&2121212121212121Xooo12121212122tw99421212121678221212121212121211,:;1212",
"212168q2121212121212121212,;12121212126621211212121&&*&212121212121212122oooo2212121212165221212121278q2121212121212121121>;2121",
"12128qer2121212121212121852>2121212121221212212121&*&&22212121212121212122oooo12121212122121212121218qer2121212121212121852>1212",
"1212qerrr2222121121212188752121212121212212121222&*&=2121212121212121212211+Ooo221211212121212121212qertr21212121212121888522121",
"2121wrrtrt21121221212188888521212121212112121212**->11212121212121212121121=%#oO12122121212121212121errrrt2121212121218887851212",
"12122rrtrtt221211212188887821212121212122121211=:<24621212121222121212122111>-*$@21212121212121212122rtrtrr212221212188888812121",
"212122rtttrr1212211188888811212121212121121212,<257781212121212221212121122222<;=%21212121212121212122rrtttr22222121888887121212",
"1212121rttttt2221219988882121212121212121212214677889q222222322222222222217432221>,21212212121211212121rtrttt2221229988882121212",
"21212121trttyiiiiurq9988212121212121212121212478870qrtyiiiiippiiiiiiiiiiiteq8533222121211212121221212122trttyuiiiurq988821212121",
"121212122rtyuiiiiiyrq9821212121212121212121212780ertuiiiiiiiiiiiiiiiiiiiiiiyrq964321121221212121121221212ttyuiiiiiurq98212121212",
"2121212122yuiiiiiiiurq2121212121212121212121227etyiiiiiiiiiiiiiyiiiiiiiuiiiiiutw04122121121212122121121222yyiiiiiiiyrq2121212121",
"12121212212121212212121212121212121212121212121221212121221212122221212121212121212121212121212121212121121212122212121212121212",
"21212121121212122221212121212121212121212121212112121212222121212212121212121212121212121212121212121212212121212221212121212121",
"12121212212121211212121212121212121212121212121221212121221212122121212121212121212121212121212121212121121212121212121212121212",
"21212121121212122121212121212121212121212121212112121212222121211212121212121212121212121212121212121212212121212121212121212121",
"21212121121212121212121221212121121212121212121221212121121212122121121212121212212121212121212121212121212121212121121212121212",
"12121212212121212121212112121212212121212121212112121212212121211212212121212121121212121212121212121212121212121212212121212121",
"21212121121212121212121221212121121212121212121221212121121212122121121212121212212121212121212121212121212121212121121212121212",
"12121212212121212121212112121212212121212121212212121212212121211212212121212121121212121212121212121212121212121212212121212121",
"2121212111%@o.......oO122121212112121212121212,*$@XXXX.X..X...X..X........X...O@$:211212212121211212212121%@o.......oO2212121212",
"121212122**%@o....X.O++21212121221212121212121<,:=%#o.......................+@%&--12212112121212212112122**%+o....XXO++221212121",
"21212122=***$@o...XO@+++2121212112121212121221<1,<>=&$+..................o+$%=---;,212122121212112121221=***%@o....O++@@12121212",
"1212121=*=***211212@++@@+2121212212121212121235211<<,;11212221121111111121*---;;:,212121121212122121212=*=***121112@@+++@1212121",
"212122=====*22121212++@+@+21212112121212212121q864<1<2122121212121212121122;;;><3422121212121212121221======12121212+@+@+@121212",
"12121=====*2212121212++@+@@21212212121211212122tw08521211212121212121212212;,135712121212121212121212-====*2212121212+@+@+@22121",
"2121:=-===121212121212@++@@$21211212121221212121yyrq921221212121212121211212478812121212121212121212;====*211212121212+@@@@$1212",
"1212<:-==12121212121212@@@$%121221212121121212122yyut12112121212121212122128999121212121212121212121<:--=21221212121212+@@#$2121",
"21213<;=1212121212121212@$%=2121121212122121212122yyuu21212121212121212122090922121212221221121212123<;=2212121212121212@$&=1212",
"121253<221212121212121212%=-1212212121>:12121212222yyuy212121212121212122999921221212122>:122121212153<222212121212121212%=-2121",
"2121554212121212121212122=--21211212<==%+22121212121uyuu2221212121212122909021211212122%&&&:12121212553112121212121212122=--1212",
"1212555221212121212121212;;-12122121>-**#o12121212122uuyy21212121212121909921212212121&%&&&*21212121555221212121212121212;--2121",
"2121566121212121121212121;--21211212<;==%+o22212121212uyuu212121212122090921212121121&%&&&&=22122121565212121212121212121-;-2212",
"1212566212121212212121212-;;121221213>==&@oo21212121212yuuy2121212221990922212121222&&%&&&*=22211212566121212121212121212;;-2121",
"2121565221212121121212122;;-212112124<;=*$OXo11212121212uuuu21222122900921212121212&&&&&&&*-12122121566212121212121212122;;;1212",
"1212566112121212212121212-;;1212212151>==%+ooo21212121212uuuu412123909021212121212&&&%&&&*=;21211212565221212121212121211--;2121",
"2121566221212121121212121-;-2221121254,-**#oooo21212212122yuuuuyyye99011212121222&&&&%&&&=--12122121666112121212121212122--;1212",
"1212666112121212212121212;;-12122121661:2211Xooo21211212122uuuyyyte0021212121212*&&&2222*=;;21211212666221212121212121212;;;2121",
"2121666221212121121212122;-;21211212563212121oooo22121212121uiyytte021212121211&&&&221212=;;12122121665212121212121212122-;-1212",
"1212666212121212212121211;;;121221215662212121oooo12121212122uyyyte21212121212*&&&1212122-;-21211212666121212121212121212;;-2121",
"1212666221212121121212122;;-2121212166621212121oooo22221212121212221212121212&&&&22221212;-;12122121666212121212121212122;;;2212",
"2121666212121212212121212;;;12121212666221212121oooo211212121212221212121212*&*&221212121;;;21211212666221212121212121212;;;2121",
"1212666221212121121212122-;;212121216662121212122Xooo2212121212121212121222&*&&2212121212;;;12122121666212121212121212121;;;1212",
"2122666212121212212121212;;;1212121266622121212122oooo12121212121212121212&*&&21121212122;;;21211212666221212121212121212-;;2121",
"1212667221212121121212122;;;21212121666212121212212Xooo121212121212121212&&*&212212121211;;;22121212666212121212121212122;;;1212",
"2121666212121212212121212-;;121212126662212121211211%$$$1212121212121212,,>>2221121212122;;;22212121666221212121212121212;;;2121",
"1212666121212121121212122;;:212121216662121212122121----212121212121212133321212212121211;;;22121222666212121212121212122;;;1212",
"2121666212121212212121222;;;121212126661212121211212:;:;121212121212121255552121121212122;;;21212122666221212121212121222;;;2121",
"1212566212121212121212121;;;222212125662221221212121:::>212121212121212155552121121212122;;:21211212566212121212121212121;;;2222",
"2121666221212121212121212;;;222121216662212112121222,,,,121212121212121278781212212121212;;;12122121666221212121212121212;;;2221",
"1212666212121212121212121;;:12121212667212122121212244342121212121212121wwew3121121212122;;;21211212666212121212121212121;;:1212",
"2121766221212121212121212-;;212121216662212112121219988212121212121212122yyyy212212121212;;;12122121766221212121212121212-;;2121",
"2121676212121212121212122;:;1212121266611212122122999922212121212121212112yuyu21121212122;:;21212121676212121212121212122;:;1212",
"1212666221212121212121212;;;21212121766221212112109901211212121212121212212yuuu2212121212;:;12121212666221212121212121212;;;2121",
"2121666212121212121212122-;;121212126662121212129990121221212121212121212122yuyu121212122:;:21212121666212121212121212122-;;1212",
"1222766221212121212121212;;;2121212277622121212990912121121212111212121212122uuuy12121212;;;12121222766221212121212121212;;;2121",
"2121667222121212121212122;;:221221216672212122999922212121212#OOOoX22121121212yuuu2212122;;:21212121667222121212121212122;;:2212",
"1212766221212121212121212;;;21211212677112122900021212121212%@+OOOoo22122121212yyuu221211,;:12121212766221212121212121212;;;2121",
"2121766212121212121212121;;;1212212176902121900921212121212%%#+OOOXXX12112121212uyuu221261;:21212121766212121212121212121;;;1212",
"1212676221212121212121212;;:212112126800qqq009921212121212&&%#OOOooooo12212121212uuuye0983>;12121212676221212121212121212;;:2121",
"2121666212121212121212122;;:12122121680qqw000921212121212%&%&121121Xooo21212212121uuutw9951:12122121666212121212121212122;;:1212",
"1212676221212121212121212;;;21211212790qqqq9922212121222&&&&12122121XoXo21211212122yuye9972:21211212676221212121212121212;;;2121",
"2121767212121212121212222;:;1212212290qqqq0921212121212&&&&2212112121oooo22121212121yutq984<12122121767212121212121212222;:;1212",
"1212676221212121212121222;;;2121121290qwq0021212121212&&&&221212212122oooo12121212222ute097221211212676221212121212121222;;;2121",
"1212766112121212121212121;;:212121210qqqq021212121222&&&&21212121212121oooo22121212121yr098412121212766112121212121212121;;:2121",
"2121678221212121212121211,:;121212126qqqq21212121212&*&&2121212121212121Xooo12121212122tw99421212121678221212121212121211,:;1212",
"121278q2121212121212121121>;21212121126521212121211&*&&212121212121212122oooo2212121212165221212121278q2121212121212121121>;2121",
"21218qer2121212121212121852>1212121221221212121212**&&12212121212121212122oooo12121212122121212121218qer2121212121212121852>1212",
"1212qertr2121212121212188852212121212121212121212*&*=2211212121212121212211+Ooo221211212121212121212qertr21212121212121888522121",
"2121errrrt21212121212188878512121212121212121222&*-><2122121212121212121121=%#oO12122121212121212121errrrt2121212121218887851212",
"12122rtrtrr212221212188888812121212121212121212=:<14721212121222121212122111>-*$@21212121212121212122rtrtrr212221212188888812121",
"212122rrtttr2222212188888712121212121212121212><257771212121212221212121122222<;=%21212121212121212122rrtttr22222121888887121212",
"1212121rtrttt2221229988882121212212121212121224678888q122222223222222222217432221>,21212212121211212121rtrttt2221229988882121212",
"21212122trttyuiiiurq9888212121211212121212121487789wetyiiiiiiiiiiiiiiiiiiteq8533222121211212121221212122trttyuiiiurq988821212121",
"121221212ttyuiiiiiurq9821212121221212121212121880eryiiiiiiiiiiiiiiiiiiiiiiiyrq964321121221212121121221212ttyuiiiiiurq98212121212",
"2121121222yyiiiiiiiyrq2121212121121212121212126wtyuiiiiiiiiiiiiiiiiiiiiuiiiiiutw04122121121212122121121222yyiiiiiiiyrq2121212121",
"21212121121212122212121212121212212121212121212121212221212121212221212121212121212121212121212121212121121212122212121212121212",
"12121212212121212221212121212121121212121212121212122212121212122212121212121212121212121212121212121212212121212221212121212121",
"21212121121212121212121212121212212121212121212121212121212121212121212121212121212121212121212121212121121212121212121212121212",
"12121212212121212121212121212121121212121212121212121212121212121212121212121212121212121212121212121212212121212121212121212121"
};
