/* XPM */
static char *metal1690634288[] = {
/* columns rows colors chars-per-pixel */
"128 128 36 1 ",
"  c #3E3E3E",
". c gray26",
"X c #464646",
"o c #484848",
"O c #4C4C4C",
"+ c gray32",
"@ c gray34",
"# c #5B5B5B",
"$ c #5D5D5D",
"% c #606060",
"& c gray40",
"* c DimGray",
"= c #6D6D6D",
"- c gray45",
"; c #767676",
": c gray48",
"> c gray50",
", c #838383",
"< c gray53",
"1 c #898989",
"2 c #8D8D8D",
"3 c #909090",
"4 c #959595",
"5 c #989898",
"6 c #9F9F9F",
"7 c #A2A2A2",
"8 c #A5A5A5",
"9 c #A9A9A9",
"0 c gray68",
"q c #B1B1B1",
"w c gray71",
"e c #B9B9B9",
"r c gray",
"t c #C1C1C1",
"y c gray77",
"u c #CACACA",
/* pixels */
"11111111111111111111111111111111111111111111111111111111111111111111111111111111111111111111111111111111111111111111111111111111",
"11111111111111111111111111111111111111111111111111111111111111111111111111111111111111111111111111111111111111111111111111111111",
"11111111111111111111111111111111111111111111111111111111111111111111111111111111111111111111111111111111111111111111111111111111",
"11111111111111111111111111111111111111111111111111111111111111111111111111111111111111111111111111111111111111111111111111111111",
"11111111111111111111111111111111111111111111111111111111111111111111111111111111111111111111111111111111111111111111111111111111",
"11111111111111111111111111111111111111111111111111111111111111111111111111111111111111111111111111111111111111111111111111111111",
"1111111111111111111111111#@OOX...  . . ...  ..   . .. . .  . . ...  ..   .. .  .. .  .. .   .     XXoO+1111111111111111111111111",
"11111111111111111111111=*&%#@+Oo. .   .    .   .  .   .   .   .    .   .     .                 .XoOO@+##%11111111111111111111111",
"1111111111111111111111>;-=*&%$#+OoX.     . .. .    .       .     . . . . .     . . .        ..XoOO+@#$$%**1111111111111111111111",
"1111111111111111111111,,>:;==*%$#@+oX..         .   . . .   . .           . .       .     ..XOOO@@#$%&*==-1111111111111111111111",
"1111111111111111111112321,,:;-=*%%$@+ooX .    .  . .   . . .   . .   .       . . .   .  ..oOO+@#$$%&&==-;;<<11111111111111111111",
"11111111111111111111115432<<>>;;-*&%$#+Oo..  .      .       .     .   . . .       .   .XoOO+@#$$%*==--::>,1111111111111111111111",
"111111111111111111111186644311,>:--*&%$#@O#<1111111111111111111111111111111111111111<@oO+@@#$%&&=--;::,,<11111111111111111111111",
"1111111111111111111111897665431<<,:;-=*,111<1111111111111111111111111111111111111111<111,#$%&*=--;:>,<11231111111111111111111111",
"11111111111111111111111q0088755331<,>:1111111111111111111111111111111111111111111111111111**=-;:>>,<1234511111111111111111111111",
"111111111111111111111111ewq098765431<<1111111111111111111111111111111111111111111111111111>;;:>,<<133456111111111111111111111111",
"<1<1<1<1<1<1<1<11<1<1<1<1reeqq997754311<1<1<<1<11<1<1<1<1<1<1<1<1<1<1<1<<1<1<1<1<1<1<1<1<1<:,,<12345567<1<1<1<1<1<1<1<1<1<1<1<1<",
"1<1<1<1<1<1<1<1<<1<1<1<1<1ttrewq098761<1<1<11<1<<1<1<1<1<1<1<1<1<1<1<1<11<1<1<1<1<1<1<1<1<1,<12444678811<1<1<1<1<1<1<1<1<1<1<1<1",
"<1<1<1<1<1<1<1<11<1<1<1<1<1tytrrwwq9841<1<1<<1<11<1<1<1<1<1<1<1<1<1<1<1<<1<1<1<1<1<1<1<1111233557788811<1<1<1<1<1<1<1<1<1<1<1<1<",
"1<1<1<1<1<1<1<1<<1<1<1<1<1<1tttttrewq0<1<1<11<1<<1<1<1<1<1<1<1<1<1<1<1<11<1<1<1<1<1<1<1<113456788888<1<1<1<1<1<1<1<1<1<1<1<1<1<1",
"<1<1<1<1<1<1<1<11<1<1<1<<1<11ttttyttee411<<1<1<11<1<1<1<1<1<1<1<1<1<1<1<<1<1<1<1<1<1<1<1<257788888811<1<1<1<1<1<1<1<1<1<1<1<1<1<",
"1<1<1<1<1<-<<<1<<1<1<1<11<1<11yttytyytr1<11<1<1<<1<1<1<1<1<1<1<1<1<1<1<11<1<1<1<1<1<1<1<1788898989<1<1<1<1<1<1<1<111<;11<1<1<1<1",
"<1<1<1<<-*%$@#111<1<1<1<<1<1<11tttyttyyt11<1<1<11<1<1<1<1<1<1<1<1<1<1<1<<1<1<1<1<1<1<1<1888989888<1<1<1<1<1<1<1<11&$$%%%1<1<1<1<",
"1<1<1<1;-*&%#+O1<1<1<1<11<1<1<11yttttytyt11<1<1<<1<1<1<1<1<1<1<1<1<1<1<11<1<1<1<1<1<1<189888888811<1<1<1<1<1<1<1<%%%%%%&%1<1<1<1",
"<1<1<1<:-=&$$@+o1<1<<1<1<1<1<1<1<ttttytyyt1<1<1<1<1<1<1<1<1<1<1<1<1<1<1<1<1<<1<1<1<11188988888911<1<1<1<1<1<1<11%%%%%%&%&11<1<1<",
"1<1<1<<>;-*&$@+oX1<11<1<1<1<1<1<1<tyttyyyyt1<1<1<1<1<1<1<1<1<1<1<1<1<1<1<1<11<1<1<1<18898989881<<1<1<1<1<1<1<11%%$%%%%%&&*<1<1<1",
"<1<11<1,:-=&%#@+oX1<<1<1<1<1<1<1<11tyytttyyy1<1<1<1<1<1<1<1<1<1<1<1<1<1<1<1<<1<11<<19898898981<11<1<1<1<1<1<11%%%$%%&%%&**1<1<1<",
"1<1<<11,:;-*%$@OOXX<1<1<1<1<1<1<1<1<ttyytytyt1<1<1<1<1<1<1<1<1<1<1<1<1<1<1<11<1<<118898998981<1<<1<1<1<1<1<1<%%%%%%%%%&&**11<1<1",
"<1<11<21>:-*&%#+OoXX<1<1<1<1<1<1<1<11ttyyyytty111<1<1<1<1<1<1<1<1<1<1<1<1<1<1<<11<989898898111<11<1<1<1<1<11%%%%%%%%&%&&*=1<1<1<",
"1<1<<141<:-=*$#++oXXX11<1<1<1<1<1<1<11yyytyyyyt1<1<1<1<1<1<1<1<1<1<1<1<1<1<1<1111889898998<11<1<<1<1<1<1<1<%%%%$$%%%%%&*==<1<1<1",
"<1<11143<>;-*&$#+OXXXX<1<1<1<1<1<1<1<1<ttytyytyt1<1<1<1<1<1<1<1<1<1<1<1<1<1<1<11989898988<1<<1<11<1<1<1<11%%&%%%%$%%&&***-1<1<1<",
"1<1<11531,:-=&$#@Oo.XXX<1<1<1<1<1<1<1<11yytyytyyt1<1<1<1<1<1<1<1<1<1<1<1<1<1<1<88989898911<11<1<<1<1<1<11%&%%%$%%%%&%&**==<1<1<1",
"<1<11<542<>;=*&$@OOoXXXX<<1<<1<1<1<1<1<1<tyyttyyyt11<11<1<1<1<1<1<1<1<1<<1<1118989898981<1<1<1<11<1<1<1<&%%%%%%%$%%&%&*=-=1<1<1<",
"1<1<<15531,:-*&$@+OoXXXXX<<11<1<1<1<1<1<11tyyyytyty11<<1<1<1<1<1<1<1<1<11<1<<8989898981<1<1<1<1<<1<1<11%%%&%%%$%%%%&&**==-<1<1<1",
"<1<11<5542,>;-&%#@+OXXXXXX1<<1<1<1<1<1<11<1tyyytyyty<<1<1<1<1<1<1<1<1<1<<1118989898981<1<1<1<1<11<1<1<%&%&%%%$%%%%%&&*===-<<1<1<",
"1<1<1155531>;-*&$@+oXXXXXXX11<1<1<1<1<1<<1<1ttyytyyyy1<1<1<1<1<1<1<1<1<11<1898989898111<1<1<1<1<<1<1<&%%%&%%%%%$%%%&&*==-=<1<1<1",
"<1<1<155531,>;=&%#++XXX.XXXX<<<1<1<1<1<1<1<11tytytyyyy<11<1<1<1<1<1<1<1<<18998998981<1<1<1<1<1<11<1<%%%&%%%%%$%%%&%&**=-==1<1<1<",
"1<1<1<555531>;=><1>OoXXX.XXXX11<1<1<1<1<1<1<11yyytytyyy1<1<1<1<1<1<1<1<11898898998<11<1<1<1<1<1<<1<&%&%%&%&%$>1<>%&&*===--<1<1<1",
"<1<1<1455531,:111<1<,XXXX.X.XX<1<1<1<1<1<1<1<11tyytyyyyy111<1<1<1<1<1<1<988998988<1<<1<1<1<1<1<11<%%&%&%%%$,11<1<1&**=--=-1<1<1<",
"1<1<1<555542<<1<<1<1<1.XXXXXX.X<1<1<1<1<1<1<1<11tyyyyyyyt1<1<1<1<1<1<1<99998989911<11<1<1<1<1<111%&%%%&%%%11<11<1<,&==-===<1<1<1",
"1<1<1155555321<11<1<1<1XX.X.X.X.1<1<1<1<<1<1<1<11tyyyyyyyy11<1<11<<1<1999989898111<1<1<1<1<1<111%%&%%%&%%111<1<11<1*==-=-=1<1<1<",
"<1<1<1555554211<<1<1<1<1XXXXXXXXX1<1<1<11<1<1<1<<1yyyyyyyyyy1<1<<111q0999899991<1<1<1<1<1<1<1<1%&%&%&%%%111<1<1<<1<*=-=-=-<1<1<1",
"1<1<1<55555521<11<1<1<1<<XXXX.XXX.<<1<1<<1<1<1<11<1tyyyyyyyyttt88eeww099999981<1<1<1<1<1<1<1<1%%%&%%&%%1<1<1<1<11<1--=-=-=1<1<1<",
"<1<1<15555551<1<<1<1<1<1<<.XXX.XXXX1<1<11<1<1<1<<111yyyyyyyyytttrreeqq989898111<1<1<1<1<1<111%%&%%%&%%1<1<1<1<1<<11<=-=-=-11<1<1",
"1<1<<145555511<11<1<1<1<1<1XXXXXXXX.1<1<<1<1<1<11<1<1tyyyyyyttttteeewq998991<1<1<1<1<1<1<1<1&%%%&%&%%1<1<1<1<1<11<1<-=-=-=1<1<1<",
"<1<11<555555111<<1<1<1<1<1<<.X.X.XXXX<<11<1<1<1<<1<111yyyyyyyyttrreww098991<1<1<1<1<1<1<1<1%%%&&&%%%111<1<1<1<1<<1<1=-=-=-<1<1<1",
"1<1<11555555<1<11<1<1<1<1<1<1XX.X.X.XX<1<1<1<1<11<1<1<1yyyyyttttteeewq9981<1<1<1<1<1<1<1<1&%%&%%%%%111<1<1<1<1<11<1<-=-=-=1<1<1<",
"<1<1115555551<1<<1<1<1<1<1<1<<XXXXXXXXX<1<1<1<1<<1<1<111yyyyyttrrreeqq991<1<1<1<1<1<1<1<<&%&%%&%%&111<1<1<1<1<1<<1<1=-=-=-<1<1<1",
"1<1<1<555555111<1<1<1<1<1<1<1<1XX.XXXXXX1<1<1<1<1<1<1<1<1tyyytttteeeqq91<1<1<1<11<1<1<1<%&%%%&%%%1<1<1<1<1<1<1<11<1<-=-=-=1<1<1<",
"<1<1<155555511<1<1<1<1<1<1<1<1<1XX.X.XXXX<<1<1<1<1<1<1<1<1yyytttrrewwq111<1<1<1<<1<1<1<&&%%&%&%&1<1<1<1<1<1<1<1<<1<1=-=-=-<1<1<1",
"1<1<1<5555461<1<1<1<1<1<1<1<1<1<<XXXX.XXXX1<1<1<1<1<1<1<1<1tyttrrrrwq1<1<1<1<1<11<1111&%&%%&%%%<1<<1<1<1<1<1<1<11<1<-=-=-=1<1<1<",
"<1<1<1555555<1<1<1<1<1<1<1<1<1<1<1.XXXXXXXX<<1<1<1<1<1<1<11<11ttte111<1<1<1<1<1<<1<1<%%&%&%%&%11<11<1<1<1<1<1<1<<1<1--=-=-11<1<1",
"1<1<1<555555<1<11<1<1<1<1<1<1<1<<1<XXXXXXXXX<1<11<1<1<1<<1<1<1<1<1<1<1<1<1<1<1<11<11%&%&&%%%&<1<1<1<<1<1<1<1<1<11<1<---=-=1<1<1<",
"<1<1<15555551<1<<1<1<1<1<1<1<1<11<1<.XX.XXXXX<1<<1<1<1<11<1<1<1<1<1<1<1<1<1<1<1<<1<%&%&%&%&%<1<1<1<11<1<1<1<1<1<<1<1-==-=-<1<1<1",
"1<1<1<555555<1<11<1<1<1<1<1<1<1<<1<1<XXXXXXXXX111<1<1<1<<1<1<1<1<1<1<1<1<1<1<1<111%&%&&%%%%11<1<1<1<<1<1<1<1<1<11<1<--==-=1<1<1<",
"<1<1<15555551<1<<1<1<1<1<1<1<1<11<1<1<X.XXXXXXX1<1<1<1<11<1<1<1<1<1<1<1<1<1<1<1<1%&%&%&%%&11<1<1<1<11<1<1<1<1<1<<1<1=---=-<1<1<1",
"1<1<<1455555<1<11<1<1<1<1<1<1<1<<1<1<1<XXXXXXXXX1<1<<1<1<1<1<1<11<1<1<1<<1<1<1<1%&%%&%%%%<1<1<1<1<1<1<1<<1<1<1<1<1<1---=-=1<1<1<",
"<1<11<5555461<1<<1<1<1<1<1<1<1<11<1<1<1<XXoXooooo1<11<1<1<1<1<1<<1<1<1<11<1<1<<&&&&&&&&&11<1<1<1<1<1<1<11<1<1<1<1<1<==----<1<1<1",
"1<1<11555555<1<11<1<1<1<1<1<1<1<<1<1<1<11O+OO+O++O1<<1<1<1<1<1<11<1<1<1<<1<1<<-==-=-===<111<1<1<1<1<1<1<<1<1<1<1<1<1--=---<<1<1<",
"<1<1115565551<1<<1<1<1<1<1<1<1<11<1<1<1<<#@#@@#####11<1<1<1<1<1<<1<1<1<11<1<<::::;:;:::11<<1<1<1<1<1<1<11<1<1<1<1<1<-=--=-<<<1<1",
"1<1<1<55555511<11<1<1<1<1<1<1<1<<1<1<1<11<%%$%%$$%%1<1<1<1<1<1<11<1<1<1<1<1<1>,>>,>>,><1<1<11<1<1<1<1<1<<1<1<1<1<1<1--===-1<1<1<",
"<1<1<1655546111<<1<1<1<1<1<1<1<11<1<1<1<<1&&&&&&&&&11<1<1<1<1<1<<1<1<1<1<1<1<1<<<1<<<<1<1<1<<1<1<1<1<1<11<1<1<1<1<1<=-----<1<1<1",
"1<1<1<555555<1<11<1<1<1<1<1<1<1<<1<1<1<11<=*===*===*<1<1<1<1<1<11<1<1<1<1<1<3222222322<1<1<11<1<1<1<1<1<<1<1<1<1<1<1---=-=1<1<1<",
"<1<1<15555551<1<<1<1<1<1<1<1<1<11<1<1<1<<1>---------1<1<1<1<1<1<<1<1<1<1<1<144344443421<1<1<<1<1<1<1<1<11<1<1<1<1<1<=-----<1<1<1",
"1<1<11555555<1<11<1<1<1<1<1<1<1<1<1<1<1<1<,;:;:;:;:;1<1<1<1<1<1<1<1<1<1<1<1<5555556553<1<1<11<1<1<1<1<1<<1<1<1<1<1<1---=--1<1<1<",
"<1<1115555651<1<<1<1<1<1<1<1<1<1<1<1<1<1<1>>>>>>>>>><1<1<1<1<1<1<1<1<1<1<1<177777766771<1<1<<1<1<1<1<1<11<1<1<1<1<1<=----=<1<1<1",
"1<1<1<655555<1<11<1<1<1<1<1<1<1<1<1<1<1<1<<<<,<<<,<<1<1<1<1<1<1<1<1<1<1<1<1<188888988811<1<11<1<1<1<1<1<<1<1<1<1<1<1=----=1<1<1<",
"<1<1<15556551<1<<1<1<1<1<1<1<1<1<1<1<1<1<11211122111<1<1<1<1<1<1<1<1<1<1<1<119000909001<1<1<<1<1<1<1<1<11<1<1<1<1<1<---=--<1<1<1",
"1<1<<1555556<1<11<1<1<1<1<1<1<1<1<1<1<1<1334343333311<1<1<1<1<1<1<1<1<1<<1<11qqwwqwwwqq1<11<1<1<1<1<1<1<<1<1<1<1<1<1------1<1<1<",
"<1<11<5555551<1<<1<1<1<1<1<1<1<1<1<1<1<1<65665656511<1<1<1<1<1<1<1<1<1<11<1<<1eeeeeeere11<<1<1<1<1<1<1<11<1<1<1<1<1<------<1<1<1",
"1<1<<1555555<1<11<1<1<1<1<1<1<1<1<1<1<11888788787<1<1<1<1<1<1<1<1<1<1<1<<1<1<11ttttttttt<11<1<1<1<1<1<1<<1<1<1<1<1<1=----=1<1<1<",
"<1<11<6556551<1<<1<1<1<1<1<1<1<1<1<1<1188888888811<1<1<1<1<1<1<1<1<1<1<11<1<1<1<yytyytytt1<1<1<1<1<1<1<11<1<1<1<1<1<---=--<1<1<1",
"1<1<1<55555511<11<1<1<1<1<1<1<1<1<1<1188898988811<1<1<1<1<1<1<1<<1<1<1<1<1<1<1<1<tyyytyyty<1<1<11<1<<1<1<1<1<1<11<1<---=--1<1<1<",
"<1<1<15555651<1<<1<1<1<1<1<1<1<1<1<1<898888898<1<1<1<1<1<1<1<1<11<1<1<1<1<1<1<1<1<ytyytyyyt11<1<<1<11<1<1<1<1<1<<1<1=---=-<1<1<1",
"1<1<11565655<1<11<1<1<1<1<1<1<1<1<11888889888<1<1<1<1<1<1<1<1<1<<1<1<1<1<1<1<1<1<11tttyyytty<1<11<1<<1<1<1<1<1<11<<<------<<1<1<",
"<1<1<15556551<1<<1<1<1<1<1<1<1<1<1<89898889811<1<1<1<1<1<1<1<1<11<1<1<1<1<1<1<1<1<11yyytyyyyt<1<<1<11<1<1<1<1<1<<1<<------<<<1<1",
"<1<11<5565551<1<1<1<1<1<1<1<1<1<11888988898<1<1<1<1<1<1<<1<<11OOoo11<1<1<1<1<1<11<1<1ttyttyyyy111<<1<1<1<1<1<1<11<1<---=--1<1<1<",
"1<1<<1565565<1<1<1<1<1<1<1<1<1<1<89988988811<1<1<1<1<1<11<1@@+OOooooX11<1<1<1<1<<1<111yyyyyttyt1<11<1<1<1<1<1<1<<1<1=-----<1<1<1",
"<1<1<15565551<1<1<1<1<1<1<1<1<1<89888888811<1<1<1<1<1<1<<1#@+++OOooXX.<1<1<1<1<11<1<1<1ttyyttyyy11<1<1<1<1<1<1<11<1<-----=1<1<1<",
"1<1<11565565<1<1<1<1<1<1<1<1<11898989898<1<1<1<1<1<1<1<11$@@@OOOoooXX.X<1<1<1<1<<1<1<111ttyyyyttt11<1<1<1<1<1<1<<1<1--=---<1<1<1",
"<1<11<55565511<1<1<1<1<1<1<11<898988898<1<1<1<1<1<1<1<<1$%#@++OOOooXXX.X<<1<1<1<1<1<1<1<1ttyyyyyyt1<1<1<1<1<1<1<1<1<--=---<1<1<1",
"1<1<<15655651<1<1<1<1<1<1<1<<99898898811<1<1<1<1<1<1<11%%%#@@OOOOooXX.X.X<<1<1<1<1<1<1<1<1ttyttyyyt1<1<1<1<1<1<1<1<1-----=1<1<1<",
"<1<11<565565<1<1<1<1<1<11<<198988998811<1<1<1<1<1<1<11%%%%#@+++OoooXX..X.X<11<1<1<1<1<1<1<1tttyytyyy1<1<1<1<1<1<1<1<=-----<<<1<1",
"1<1<115565551<1<1<1<1<1<<11889899898<1<1<1<1<1<1<1<1<%%%%$#+@+OOOoooXXX.X.X<<1<1<1<1<1<1<11<yyyttytyt1<1<1<1<1<1<1<1---=--<<1<1<",
"<1<1<165555511<1<1<1<1<11<98989889811<1<1<1<1<1<1<11%%%%%%#@++OOooXXX.X..XXX<1<11<1<1<1<<1<11tytyyytyt1<1<1<1<1<1<<<------<1<1<1",
"1<1<1<5565656<1<1<1<1<1<18898989981<<1<1<1<1<1<1<1<%%%%%%%#@++O;;ooX.X.X.XX.X<1<<1<1<1<11<1<11yyytyyyty1<1<1<1<1<1<>-=----1<1<1<",
"<1<1<155555671<1<1<1<1<19898989881<11<1<1<1<1<1<1<%%%&&%%%$@<<1<111<XXX..X.XXX<<1<1<1<1<<1<1<11ttytyyyty1<1<1<1<1<1,;---=-<1<1<1",
"1<1<1<5656567<1<1<1<1<1989898989111<<1<1<1<1<1<11%&%%%%%%%<1<1<111<1<<XXXXXXX.X<<1<1<1<11<1<1<<1yytytyyyt1<1<1<1<1<,:--=--1<1<1<",
"1<1<11565557831<1<1<1<9889898981<1<1<1<11<1<1<1<%%&%%%%%%1<1<1<1<1<1<1<XXXXXX.XX11<11<1<1<1<1<1<1tyyttyyyy111<1<<11<>--=--<1<1<1",
"<1<1<155566789<1<1<149899898981<1<1<1<1<<1<1<11%%%%%%&%%1<1<1<1<1<1<1<1<X.X.XXXXX<1<<1<1<1<1<1<111tyyyyttyt5<1<11<42,:---=1<1<1<",
"1<1<1<65556799961<409898898981<1<1<1<1<11<1<11%%&%%%%%&1<1<1<1<1<1<1<1<1<XXXX.XXXX<11<1<1<1<1<1<1<1tyyytyyttr5114643<:----<<<1<1",
"<1<1<15566789990q00099899898111<1<1<1<1<<1<11%&%%%%&%%1<1<1<1<1<1<1<1<1<1<X.XX.XXXX<<1<1<1<1<1<1<1<1ttyytyytrww087531,;---<<1<1<",
"1<1<<155567899000q0998988981<1<1<1<1<1<11<1<%%%%&%%%%1<1<1<1<1<1<1<1<1<1<1<XXX.XX.XX<<1<1<1<1<1<<1<11tyttyytrewq98632<:---<1<1<1",
"<1<11<56678990000009898998<11<1<1<1<1<1<<1<&%&%&%%%%1<1<1<1<1<1<1<1<1<1<1<1<X.XXXX.XX1<1<1<1<1<11<1<11yyyytytreq087531,;--1<1<1<",
"1<1<11556789900q009998988<1<<1<1<1<1<1<11<%%&%%%%%%1<1<1<1<1<1<1<1<1<1<1<1<1<XXXXXXXXX<<1<1<1<1<<1<1<11tytyttrewq97642<:=-<1<1<1",
"<1<11156689900000009898911<11<1<1<1<1<111%&%%&%%%%1<1<1<1<1<1<1<1<1<1<1<1<1<1<X..X.X.XX<<1<1<1<11<1<1<11ytyyttrwq97642<>;-1<1<1<",
"1<1<1<56789900q009998981<1<1<1<11<1<1<<1%%%&%%%%%1<1<1<1<1<1<1<1<1<1<1<1<1<1<1<X.X.X.X.X1<1<<1<1<1<1<1<1<tyyytreq097542,:-1<1<1<",
"<1<1<15788990000008998111<1<1<1<<1<1<11&%&%%&%%&111<1<1<1<1<1<1<1<1<1<1<1<1<1<1<XXXXXXXXX1<11<1<1<1<1<1<1<ytyttewq97642<>;<1<1<1",
"1<1<1<67899000q0099881<1<1<1<1<11<1111%%&%&%&%%1<1<1<1<1<1<1<1<1<1<1<1<1<1<1<1<1<X.XXX.XX.1<<1<1<1<1<1<1<11ttttreq096532,:<<1<1<",
"<1<1<<779990000009891<1<1<1<1<1<<1<1<%&%%%&%%%1<1<1<1<1<1<1<1<1<1<1<1<1<1<1<1<1<1<XXX.XXXXX<1<1<1<1<1<1<1<11yytrew097643,:<1<1<1",
"1<1<1<7889000000088111<1<1<1<1<11<11%&&%%&&%%1<1<1<1<1<1<1<1<1<1<1<1<1<1<1<1<1<1<1<X.XXXXXXX<1<1<1<1<1<11<1<1yttrwq086531>1<1<1<",
"<1<1<1789000000099<11<1<1<1<1<1<<1<%&%%%%%%%111<1<1<1<1<1<1<1<1<1<1<1<1<1<1<1<1<1<1<XXX.XXXXX11<1<1<1<1<<1<1<1ttreq097541<<1<1<1",
"1<1<1<889000q0099<1<<1<1<1<1<1<11<&%%%%&&&%<11<1<1<1<1<1<1<1<1<1<1<1<1<1<1<1<1<1<1<1<XXXXXXXXX<1<1<1<1<11<1<1<<treeq9865311<1<1<",
"<1<1<11990000009<1<11<1<1<1<1<1<<&%&%&%&%%111<1<1<1<1<1<1<1<1<1<1<1<1<1<1<1<1<1<1<1<<<X.X.XXXXX11<1<1<1<<1<1<11<teww087531<1<1<1",
"1<1<1<199000000<1<1<1<1<<1<1<1<1&%&%%&%%%<1<1<1<<1<1<1<1<1<1<1<1<1<1<1<1<1<1<1<1<1<1<1<XXXXXXXXX<<1<<1<1<1<1<1<11rew0976511<1<1<",
"<1<1<1<100000711<1<1<1<11<1<1<1%%&%&%%&%11<1<1<11<1<1<1<1<1<1<1<1<1<1<1<1<1<1<1<1<1<1<1<XXXXXXXXX1<11<1<1<1<1<1<<10wq987<1<1<1<1",
"1<1<1<1<<16<<1<11<1<1<1<<1<1<<&%&%&%&%*<111<1<1<<1<1<1<1<1<1<1<1<1<1<1<1<1<1<1<1<1<1<1<1<oXXXXXXXo1<<1<1<1<1<1<11<<1151<1<1<1<1<",
"<1<1<1<11<1<1<1<<1<1<1<11<1<1&%&%&%&*-<11<<1<1<11<1<1<1<1<1<1<1<1<1<1<1<1<1<1<1<1<1<1<1<<>@OoXXXXXX11<1<1<1<1<1<<11111<1<1<1<1<1",
"1<1<1<1<<1<1<1<11<1<1<1<1<1<%&%&&*=-;:<1<1<11<1<<1<1<1<1<1<1<1<1<1<1<1<1<1<1<1<1<1<1<1<1<1$#@+OXXXXo1<<1<1<1<1<11<1<1<1<1<1<1<1<",
"<1<1<1<11<1<1<1<<1<1<1<1<1<&&%**=-:>,<1<1<1<<1<11<1<1<1<1<1<1<1<1<1<1<1<1<1<1<1<1<1<1<1<1<,&%$#@OOooX1111<1<1<1<<1<1<1<1<1<1<1<1",
"1<1<1<1<<1<1<1<11<1<1<1<1<%&*=-;:>,11<<1<1<11<1<<1<1<1<1<1<1<1<1<1<1<1<1<1<1<1<1<1<1<1<1<1<-=*&%$#+ooo11<1<1<1<11<1<1<1<1<1<1<1<",
"<1<1<1<11<1<1<1<<1<1<1<11&==;::,<1133<1<1<1<<1<11<1<1<1<1<1<1<1<1<1<1<1<1<1<1<1<1<1<1<1<<<<>:;=*&%$#@Oo11<1<1<1<<1<1<1<1<1<1<1<1",
"<1<1<1<1<1<1<1<11<1<1<1<=-;:>,<1234563<1<1<11<1<<1<1<1<1<1<1<1<1<1<1<1<1<1<1<1<11<1<1<1<1<11<>:;-=*&%$@+1<1<1<1<1<1<1<1<1<1<1<1<",
"1<1<1<1<1<1<1<1<<1<1<1<;:>,<<2334577791<1<1<<1<11<1<1<1<1<1<1<1<1<1<1<1<1<1<1<1<<1<1<1<1<15321<>>;-=*&%%#1<1<1<1<1<1<1<1<1<1<1<1",
"<1<1<1<1<1<1<1<11<1<<<>,,<123356778900w411<11<11<1<1<1<1<1<1<1<1<1<1<1<<<1<1<1<11<1<111138754431<,>:;-=*&&1<1<1<1<1<1<1<1<1<1<1<",
"1<1<1<1<1<1<1<1<<1<1<<<1133566779900qeerrtr4<1<11<1<1<1<1<1<1<<<1<1<1<1<1<1<1<1<<1<<3reewq997754321<>>;--*<1<1<1<1<1<1<1<1<1<1<1",
"<1<1<1<1<1<1<1<11<1<1<2344567899qqweerrtyuyuuuuuuuuuuuuuuuuuuuuuuuyuuuuuyuuuuuuuuuuuuuytrww0098764422<,>:;<11<1<1<1<1<1<1<1<1<1<",
"1<1<1<1<1<1<1<1<<1<112456788990wwwertyyuyuuuuuyuuuuyuyuuuuuyyuuuuyuuuuuuuuuyuyuyuyyuuyuuyttewq0977654311,>,<<1<1<1<1<1<1<1<1<1<1",
"<1<1<1<1<1<1<1<11<1<<16779900wwerrtyyuyuuuuuuyuuuuuuuuyuuuuuuuuuuuyuyuuuuuuuuuuyuuyuyuuyuyyttrwq0987654331<11<1<1<1<1<1<1<1<1<1<",
"1<1<1<1<1<1<1<1<<1<11<8890qweertyyyyuuuuuuyuuuuuuyuuuuuuuyuuuuyuuuuuuuuyuuuuyyuuyuuuyuuyuuuuuttrewq08776531<<1<1<1<1<1<1<1<1<1<1",
"<1<1<1<1<1<1<1<1<1<1<110wwwrrttyuuyuyuuuuuuuuuuuuuuuuuuuuuuuuuuuyuyuyuyuyuuuyyuuuuyyuuuuuuuyyuuytrewq0987<1<1<1<1<1<1<1<1<1<1<1<",
"1<1<1<1<1<1<1<1<1<1<1<11<rrttyuuuyuuyuuyuyuyuyuyuyuyyuuyyuyuuyyuuuuuuuuuyuyuuuuyyuuuuyyuyyuuuyuyuytrrww1<1<1<1<1<1<1<1<1<1<1<1<1",
"<1<1<1<1<1<1<1<1<1<1<11<<1<11<<<<1<111<1<1<1<1<1<1<1<1<11<1<1<1<1<1<1<1<1<1<1<1<1<1<1<1<111<1<<11<1<<1<11<1<1<1<1<1<1<1<1<1<1<1<",
"1<1<1<1<1<1<1<1<1<1<1<<11<1<<1<11<1<111<1<1<1<1<1<1<1<1<<1<1<1<1<1<1<1<111<1<1<1<1<1<1<1<1<1<11<11<11<1<<1<1<1<1<1<1<1<1<1<1<1<1",
"<1<1<1<1<1<1<1<1<1<11<1<1<1<1<1<<1<1<1<1<1<1<1<1<1<1<1<11<1<1<1<1<1<1<1<1<1<1<1<1<1<1<1<1<1<<1<1<1<1<1<11<1<1<1<1<1<1<1<1<1<1<1<",
"1<1<1<1<1<1<1<1<1<1<<1<1<1<1<1<11<1<1<1<1<1<1<1<1<1<1<1<<1<1<1<1<1<1<1<1<1<1<1<1<1<1<1<1<1<11<1<1<1<1<1<<1<1<1<1<1<1<1<1<1<1<1<1",
"<1<1<1<1<1<1<1<1<1<11<1<1<1<1<1<<1<1<1<1<1<1<1<1<1<1<1<11<1<1<1<1<1<1<1<1<1<1<1<1<1<1<1<1<1<<1<1<1<1<1<11<1<1<1<1<1<1<1<1<1<1<1<",
"1<1<1<1<1<1<1<1<1<1<<1<1<1<1<1<11<1<1<1<1<1<1<1<1<1<1<1<<1<1<1<1<1<1<1<1<1<1<1<1<1<1<1<1<1<11<1<1<1<1<1<<1<1<1<1<1<1<1<1<1<1<1<1"
};
